<?xml version="1.0" encoding="UTF-8"?>
<svg width="512" height="512" viewBox="0 0 24 24" xmlns="http://www.w3.org/2000/svg">
  <defs>
    <linearGradient id="brainGradient" x1="0%" y1="0%" x2="100%" y2="100%">
      <stop offset="0%" stop-color="#8B5CF6" />
      <stop offset="50%" stop-color="#EC4899" />
      <stop offset="100%" stop-color="#F97316" />
    </linearGradient>
  </defs>
  <path fill="url(#brainGradient)" d="M15.5 3a5.5 5.5 0 0 1 5.5 5.5c0 .97-.25 1.89-.69 2.69.64.97 1.02 2.12 1.02 3.36 0 2.13-1.08 3.95-2.72 5.04A5.5 5.5 0 0 1 13.5 21h-3a5.5 5.5 0 0 1-5.11-3.41A6.5 6.5 0 0 1 2 11.5C2 8.46 4.46 6 7.5 6c.55 0 1.08.07 1.58.21A5.5 5.5 0 0 1 15.5 3Zm0 2a3.5 3.5 0 0 0-3.15 5.03l.5.97h-1.72l-.5-.81A3.5 3.5 0 0 0 7.5 8a4.5 4.5 0 0 0-4.5 4.5c0 1.85 1.12 3.58 2.75 4.32l.75.34l-.16.82A3.5 3.5 0 0 0 10.5 19h3a3.5 3.5 0 0 0 3.15-5.03l-.5-.97h1.72l.5.81A3.5 3.5 0 0 0 19 11.5c0-1.41-.84-2.72-2.15-3.29l-.73-.31l.23-.76A3.5 3.5 0 0 0 15.5 5Z"/>
</svg>
